<svg width="8" height="8" viewBox="0 0 6 8" fill="white" xmlns="http://www.w3.org/2000/svg">
<path d="M5.27344 4.55469C5.42448 4.85156 5.5 5.16667 5.5 5.5C5.5 5.72917 5.47005 5.95052 5.41016 6.16406C5.35026 6.3776 5.26562 6.57682 5.15625 6.76172C5.04948 6.94661 4.91927 7.11589 4.76562 7.26953C4.61458 7.42057 4.44661 7.55078 4.26172 7.66016C4.07682 7.76693 3.8776 7.85026 3.66406 7.91016C3.45052 7.97005 3.22917 8 3 8C2.77083 8 2.54948 7.97005 2.33594 7.91016C2.1224 7.85026 1.92318 7.76693 1.73828 7.66016C1.55339 7.55078 1.38411 7.42057 1.23047 7.26953C1.07943 7.11589 0.949219 6.94661 0.839844 6.76172C0.733073 6.57682 0.64974 6.3776 0.589844 6.16406C0.529948 5.95052 0.5 5.72917 0.5 5.5C0.5 5.16927 0.572917 4.85547 0.71875 4.55859L2.98047 0L5.27344 4.55469Z" fill="white"/>
</svg>
